<svg width="33" height="33" viewBox="0 0 33 33" fill="none" xmlns="http://www.w3.org/2000/svg">
<rect x="1" y="6" width="31" height="21" rx="5" fill="#BD00FF" fill-opacity="0.29"/>
<path d="M13.9363 21.3149C14.2347 21.5999 14.2574 22.0687 13.9879 22.3812V22.3812C13.698 22.7175 13.1852 22.7418 12.8647 22.4344L8.70445 18.4433C7.88387 17.656 7.88387 16.344 8.70445 15.5567L12.8607 11.5695C13.1829 11.2604 13.6988 11.286 13.9888 11.6254V11.6254C14.2577 11.9401 14.2326 12.4103 13.9317 12.6946L10.9271 15.5328C10.0948 16.319 10.0911 17.6421 10.9191 18.4329L13.9363 21.3149Z" fill="white"/>
<path d="M19.0695 12.6913C18.7724 12.4082 18.7475 11.9426 19.0127 11.6294V11.6294C19.3016 11.2883 19.8183 11.2615 20.1408 11.571L24.2956 15.5567C25.1162 16.344 25.1162 17.656 24.2956 18.4433L20.1343 22.4353C19.8148 22.7418 19.3034 22.7164 19.0158 22.3798V22.3798C18.7495 22.0681 18.7741 21.6024 19.0718 21.3205L22.0839 18.4689C22.9153 17.6818 22.9175 16.3587 22.0887 15.5688L19.0695 12.6913Z" fill="white"/>
</svg>
