<svg width="24" height="24" viewBox="0 0 24 24" fill="none" xmlns="http://www.w3.org/2000/svg">
<path fill-rule="evenodd" clip-rule="evenodd" d="M12 1C12.5207 1 12.9429 1.39931 12.9429 1.89189V14.0089L16.3619 10.7747C16.7301 10.4264 17.3271 10.4264 17.6953 10.7747C18.0635 11.123 18.0635 11.6878 17.6953 12.0361L12.6667 16.7928C12.2985 17.1411 11.7015 17.1411 11.3333 16.7928L6.30473 12.0361C5.93652 11.6878 5.93652 11.123 6.30473 10.7747C6.67294 10.4264 7.26992 10.4264 7.63813 10.7747L11.0571 14.0089V1.89189C11.0571 1.39931 11.4793 1 12 1ZM1.94286 15.2703C2.46358 15.2703 2.88571 15.6696 2.88571 16.1622V19.7297C2.88571 20.5507 3.58926 21.2162 4.45714 21.2162H19.5429C20.4108 21.2162 21.1143 20.5507 21.1143 19.7297V16.1622C21.1143 15.6696 21.5364 15.2703 22.0571 15.2703C22.5779 15.2703 23 15.6696 23 16.1622V19.7297C23 21.5359 21.4522 23 19.5429 23H4.45714C2.54782 23 1 21.5359 1 19.7297V16.1622C1 15.6696 1.42213 15.2703 1.94286 15.2703Z" fill="url(#paint0_linear_1843_34)"/>
<defs>
<linearGradient id="paint0_linear_1843_34" x1="12" y1="1" x2="12" y2="23" gradientUnits="userSpaceOnUse">
<stop stop-color="#002296"/>
<stop offset="1" stop-color="#9747FF"/>
</linearGradient>
</defs>
</svg>
