<svg width="24" height="24" viewBox="0 0 24 24" fill="none" xmlns="http://www.w3.org/2000/svg">
<rect x="1" y="1" width="22" height="22" rx="5" fill="#9A52FC"/>
<path d="M12 4.66666C7.65892 4.66666 4.14285 8.1515 4.14285 12.454C4.14285 15.7707 6.2264 18.5913 9.16749 19.7183C9.39692 19.8062 9.66086 19.9215 9.8747 19.8005C10.0022 19.7284 10.0554 19.5951 10.0554 19.4724V19.4724C10.0554 18.7173 9.34468 18.2032 8.60327 18.0602C7.78986 17.9034 7.51221 17.4098 7.40357 17.1069C7.31517 16.8831 6.93214 16.1919 6.59821 16.007C6.32321 15.861 5.93035 15.5008 6.58839 15.4911C7.20714 15.4813 7.6491 16.0557 7.79642 16.2893C8.40971 17.3108 9.34065 17.1974 9.87169 17.016C10.0068 16.9698 10.1029 16.7932 10.1396 16.6552V16.6552C10.2327 16.3052 10.0003 15.8159 9.64878 15.7289C8.24116 15.3805 7.01071 14.4898 7.01071 12.0452C7.01071 11.6579 7.07437 11.3012 7.19137 10.9759C7.44096 10.282 7.6654 9.82737 7.65756 9.08999V9.08999C7.65146 8.51615 8.24074 7.82609 8.78164 8.01779C8.86441 8.04713 8.95328 8.08205 9.04838 8.12355C9.72022 8.41667 10.4595 8.55007 11.188 8.46964C11.4633 8.43925 11.7415 8.42405 12.0196 8.42405C12.2929 8.42405 12.5661 8.43872 12.8366 8.46804C13.5742 8.548 14.322 8.40991 15.0025 8.11432C15.0965 8.0735 15.1843 8.03921 15.2661 8.01048C15.8031 7.82191 16.3858 8.51094 16.3818 9.08003V9.08003C16.3766 9.82295 16.603 10.2838 16.8521 10.9837C16.9664 11.3049 17.0286 11.6582 17.0286 12.0452C17.0286 14.141 16.1252 15.0925 14.9826 15.5411C14.4238 15.7605 13.9741 16.7305 13.9741 17.3308V17.3308C13.9741 18.3724 13.9643 19.2095 13.9643 19.4724C13.9643 19.6768 14.1116 19.9201 14.5045 19.8423C16.0643 19.3205 17.4198 18.327 18.38 17.0016C19.3402 15.6762 19.8569 14.0857 19.8571 12.454C19.8571 8.1515 16.3411 4.66666 12 4.66666Z" fill="white"/>
</svg>
