<svg width="24" height="24" viewBox="0 0 24 24" fill="none" xmlns="http://www.w3.org/2000/svg">
<path d="M11.3458 6.67479C11.2341 4.52278 10.1049 2.78898 9.1767 1.78226C8.68953 1.25386 7.90597 1.16954 7.29572 1.54918C4.71551 3.15434 3.68078 5.73199 4.0848 9.28213C4.38734 10.8159 5.90004 14.0367 9.22799 19.098C12.8218 24.1676 17.7497 23.4085 19.7564 21.7562C19.7976 21.7223 19.8355 21.6857 19.8648 21.6411C20.6217 20.4872 17.9873 16.7886 17.2453 16.3373C16.6402 15.8772 16.0856 16.0305 15.7326 16.1839L14.2199 16.9508C13.2666 17.365 12.436 16.9091 11.8383 16.3664C11.7088 16.2488 11.6046 16.1069 11.5182 15.9547L8.77418 11.1226C8.16909 9.58887 8.87503 8.66864 9.37926 8.36189C10.8315 7.50301 11.3458 7.22266 11.3458 6.67479Z" stroke="white" stroke-width="1.1"/>
</svg>
