<svg width="128" height="38" viewBox="0 0 128 38" fill="none" xmlns="http://www.w3.org/2000/svg">
<path d="M7.952 6.616C7.87733 6.54133 7.73867 6.44 7.536 6.312C7.344 6.184 7.104 6.06133 6.816 5.944C6.53867 5.82667 6.23467 5.72533 5.904 5.64C5.57333 5.544 5.23733 5.496 4.896 5.496C4.29867 5.496 3.84533 5.608 3.536 5.832C3.23733 6.056 3.088 6.37067 3.088 6.776C3.088 7.08533 3.184 7.33067 3.376 7.512C3.568 7.69333 3.856 7.848 4.24 7.976C4.624 8.104 5.104 8.24267 5.68 8.392C6.42667 8.57333 7.072 8.79733 7.616 9.064C8.17067 9.32 8.592 9.66133 8.88 10.088C9.17867 10.504 9.328 11.0587 9.328 11.752C9.328 12.36 9.216 12.8827 8.992 13.32C8.768 13.7467 8.45867 14.0933 8.064 14.36C7.66933 14.6267 7.22133 14.824 6.72 14.952C6.21867 15.0693 5.68533 15.128 5.12 15.128C4.55467 15.128 3.98933 15.0693 3.424 14.952C2.85867 14.8347 2.31467 14.6693 1.792 14.456C1.26933 14.232 0.789333 13.9653 0.352 13.656L1.328 11.752C1.424 11.848 1.59467 11.976 1.84 12.136C2.08533 12.2853 2.384 12.44 2.736 12.6C3.088 12.7493 3.472 12.8773 3.888 12.984C4.304 13.0907 4.72533 13.144 5.152 13.144C5.74933 13.144 6.20267 13.0427 6.512 12.84C6.82133 12.6373 6.976 12.3493 6.976 11.976C6.976 11.6347 6.85333 11.368 6.608 11.176C6.36267 10.984 6.02133 10.8187 5.584 10.68C5.14667 10.5307 4.62933 10.3707 4.032 10.2C3.31733 9.99733 2.72 9.77333 2.24 9.528C1.76 9.272 1.40267 8.952 1.168 8.568C0.933333 8.184 0.816 7.704 0.816 7.128C0.816 6.34933 0.997333 5.69867 1.36 5.176C1.73333 4.64267 2.23467 4.24267 2.864 3.976C3.49333 3.69867 4.192 3.56 4.96 3.56C5.49333 3.56 5.99467 3.61867 6.464 3.736C6.944 3.85333 7.392 4.008 7.808 4.2C8.224 4.392 8.59733 4.6 8.928 4.824L7.952 6.616ZM11.2685 9.24C11.2685 8.54667 11.3912 7.86933 11.6365 7.208C11.8925 6.536 12.2605 5.928 12.7405 5.384C13.2205 4.82933 13.8072 4.392 14.5005 4.072C15.1938 3.74133 15.9832 3.576 16.8685 3.576C17.9138 3.576 18.8152 3.80533 19.5725 4.264C20.3405 4.72267 20.9112 5.32 21.2845 6.056L19.5885 7.224C19.3965 6.79733 19.1458 6.46133 18.8365 6.216C18.5272 5.96 18.1965 5.784 17.8445 5.688C17.4925 5.58133 17.1458 5.528 16.8045 5.528C16.2498 5.528 15.7645 5.64 15.3485 5.864C14.9432 6.088 14.6018 6.38133 14.3245 6.744C14.0472 7.10667 13.8392 7.512 13.7005 7.96C13.5725 8.408 13.5085 8.856 13.5085 9.304C13.5085 9.80533 13.5885 10.2907 13.7485 10.76C13.9085 11.2187 14.1325 11.6293 14.4205 11.992C14.7192 12.344 15.0712 12.6267 15.4765 12.84C15.8925 13.0427 16.3458 13.144 16.8365 13.144C17.1885 13.144 17.5458 13.0853 17.9085 12.968C18.2712 12.8507 18.6072 12.664 18.9165 12.408C19.2258 12.152 19.4658 11.8213 19.6365 11.416L21.4445 12.456C21.2205 13.0213 20.8525 13.5013 20.3405 13.896C19.8392 14.2907 19.2738 14.5893 18.6445 14.792C18.0152 14.9947 17.3912 15.096 16.7725 15.096C15.9618 15.096 15.2205 14.9307 14.5485 14.6C13.8765 14.2587 13.2952 13.8107 12.8045 13.256C12.3245 12.6907 11.9458 12.0613 11.6685 11.368C11.4018 10.664 11.2685 9.95467 11.2685 9.24ZM23.8853 15V3.64H28.9093C29.4319 3.64 29.9119 3.74667 30.3493 3.96C30.7973 4.17333 31.1813 4.46133 31.5013 4.824C31.8319 5.18667 32.0826 5.592 32.2533 6.04C32.4346 6.488 32.5253 6.94667 32.5253 7.416C32.5253 7.896 32.4399 8.36 32.2693 8.808C32.1093 9.24533 31.8746 9.62933 31.5653 9.96C31.2559 10.2907 30.8933 10.5467 30.4773 10.728L33.0693 15H30.6373L28.3013 11.192H26.0933V15H23.8853ZM26.0933 9.256H28.8613C29.1386 9.256 29.3839 9.176 29.5973 9.016C29.8106 8.84533 29.9813 8.62133 30.1093 8.344C30.2373 8.06667 30.3013 7.75733 30.3013 7.416C30.3013 7.05333 30.2266 6.73867 30.0773 6.472C29.9279 6.19467 29.7359 5.976 29.5013 5.816C29.2773 5.656 29.0319 5.576 28.7653 5.576H26.0933V9.256ZM40.2714 15.08C39.4394 15.08 38.682 14.92 37.9994 14.6C37.3274 14.28 36.746 13.848 36.2554 13.304C35.7754 12.7493 35.402 12.1307 35.1354 11.448C34.8687 10.7547 34.7354 10.0453 34.7354 9.32C34.7354 8.56267 34.874 7.84267 35.1514 7.16C35.4394 6.46667 35.8287 5.85333 36.3194 5.32C36.8207 4.776 37.4074 4.34933 38.0794 4.04C38.762 3.72 39.5087 3.56 40.3194 3.56C41.1407 3.56 41.8874 3.72533 42.5594 4.056C43.242 4.38667 43.8234 4.82933 44.3034 5.384C44.7834 5.93867 45.1567 6.55733 45.4234 7.24C45.69 7.92267 45.8234 8.62667 45.8234 9.352C45.8234 10.0987 45.6847 10.8187 45.4074 11.512C45.13 12.1947 44.7407 12.808 44.2394 13.352C43.7487 13.8853 43.162 14.3067 42.4794 14.616C41.8074 14.9253 41.0714 15.08 40.2714 15.08ZM36.9754 9.32C36.9754 9.81067 37.05 10.2853 37.1994 10.744C37.3487 11.2027 37.562 11.6133 37.8394 11.976C38.1274 12.328 38.474 12.6107 38.8794 12.824C39.2954 13.0267 39.7647 13.128 40.2874 13.128C40.8207 13.128 41.2954 13.0213 41.7114 12.808C42.1274 12.584 42.474 12.2907 42.7514 11.928C43.0287 11.5547 43.2367 11.144 43.3754 10.696C43.5247 10.2373 43.5994 9.77867 43.5994 9.32C43.5994 8.82933 43.5194 8.36 43.3594 7.912C43.21 7.45333 42.9914 7.048 42.7034 6.696C42.426 6.33333 42.0794 6.05067 41.6634 5.848C41.258 5.63467 40.7994 5.528 40.2874 5.528C39.7434 5.528 39.2634 5.64 38.8474 5.864C38.442 6.07733 38.1007 6.36533 37.8234 6.728C37.546 7.09067 37.3327 7.496 37.1834 7.944C37.0447 8.392 36.9754 8.85067 36.9754 9.32ZM48.4771 15V3.64H50.6851V13.064H56.4771V15H48.4771ZM58.7809 15V3.64H60.9889V13.064H66.7809V15H58.7809ZM73.404 15V3.64H77.532C78.7693 3.64 79.804 3.896 80.636 4.408C81.468 4.90933 82.092 5.592 82.508 6.456C82.924 7.30933 83.132 8.25867 83.132 9.304C83.132 10.456 82.9027 11.4587 82.444 12.312C81.9853 13.1653 81.3347 13.8267 80.492 14.296C79.66 14.7653 78.6733 15 77.532 15H73.404ZM80.908 9.304C80.908 8.568 80.7747 7.92267 80.508 7.368C80.2413 6.80267 79.8573 6.36533 79.356 6.056C78.8547 5.736 78.2467 5.576 77.532 5.576H75.612V13.064H77.532C78.2573 13.064 78.8707 12.904 79.372 12.584C79.8733 12.2533 80.252 11.8053 80.508 11.24C80.7747 10.664 80.908 10.0187 80.908 9.304ZM90.6651 15.08C89.8331 15.08 89.0758 14.92 88.3931 14.6C87.7211 14.28 87.1398 13.848 86.6491 13.304C86.1691 12.7493 85.7958 12.1307 85.5291 11.448C85.2625 10.7547 85.1291 10.0453 85.1291 9.32C85.1291 8.56267 85.2678 7.84267 85.5451 7.16C85.8331 6.46667 86.2225 5.85333 86.7131 5.32C87.2145 4.776 87.8011 4.34933 88.4731 4.04C89.1558 3.72 89.9025 3.56 90.7131 3.56C91.5345 3.56 92.2811 3.72533 92.9531 4.056C93.6358 4.38667 94.2171 4.82933 94.6971 5.384C95.1771 5.93867 95.5505 6.55733 95.8171 7.24C96.0838 7.92267 96.2171 8.62667 96.2171 9.352C96.2171 10.0987 96.0785 10.8187 95.8011 11.512C95.5238 12.1947 95.1345 12.808 94.6331 13.352C94.1425 13.8853 93.5558 14.3067 92.8731 14.616C92.2011 14.9253 91.4651 15.08 90.6651 15.08ZM87.3691 9.32C87.3691 9.81067 87.4438 10.2853 87.5931 10.744C87.7425 11.2027 87.9558 11.6133 88.2331 11.976C88.5211 12.328 88.8678 12.6107 89.2731 12.824C89.6891 13.0267 90.1585 13.128 90.6811 13.128C91.2145 13.128 91.6891 13.0213 92.1051 12.808C92.5211 12.584 92.8678 12.2907 93.1451 11.928C93.4225 11.5547 93.6305 11.144 93.7691 10.696C93.9185 10.2373 93.9931 9.77867 93.9931 9.32C93.9931 8.82933 93.9131 8.36 93.7531 7.912C93.6038 7.45333 93.3851 7.048 93.0971 6.696C92.8198 6.33333 92.4731 6.05067 92.0571 5.848C91.6518 5.63467 91.1931 5.528 90.6811 5.528C90.1371 5.528 89.6571 5.64 89.2411 5.864C88.8358 6.07733 88.4945 6.36533 88.2171 6.728C87.9398 7.09067 87.7265 7.496 87.5771 7.944C87.4385 8.392 87.3691 8.85067 87.3691 9.32ZM102.306 3.672H104.354L105.65 7.432L106.962 3.672H108.994L107.042 8.84L108.482 12.456L111.698 3.64H114.098L109.554 15H107.65L105.65 10.232L103.666 15H101.762L97.2337 3.64H99.6017L102.834 12.456L104.242 8.84L102.306 3.672ZM118.429 7.704V15H116.221V3.64H117.981L123.853 11.128V3.656H126.061V15H124.221L118.429 7.704Z" fill="white" fill-opacity="0.13"/>
<path d="M75.2647 25.2915L64.4989 35.6523L53.7331 25.2915C53.5407 25.106 53.2825 25.0021 53.0136 25.0021C52.7447 25.0021 52.4865 25.106 52.2942 25.2915C52.201 25.3816 52.127 25.4891 52.0765 25.6078C52.026 25.7264 52 25.8539 52 25.9826C52 26.1113 52.026 26.2388 52.0765 26.3575C52.127 26.4761 52.201 26.5837 52.2942 26.6738L63.7471 37.6981C63.9483 37.8917 64.218 38 64.4989 38C64.7798 38 65.0495 37.8917 65.2507 37.6981L76.7036 26.6759C76.7974 26.5857 76.872 26.4779 76.9229 26.3589C76.9738 26.2398 77 26.1119 77 25.9826C77 25.8534 76.9738 25.7254 76.9229 25.6064C76.872 25.4873 76.7974 25.3795 76.7036 25.2893C76.5113 25.1038 76.2531 25 75.9842 25C75.7153 25 75.4571 25.1038 75.2647 25.2893V25.2915Z" fill="white" fill-opacity="0.13"/>
</svg>
