<svg width="306" height="57" viewBox="0 0 306 57" fill="none" xmlns="http://www.w3.org/2000/svg">
<path d="M85.7202 28.6644H82.2641C82.1743 28.6644 82.1294 28.6145 82.1294 28.5148V11.0396H78.1496C78.0499 11.0396 78 10.9898 78 10.89L78.0299 7.46381C78.0299 7.38401 78.0698 7.34412 78.1496 7.34412H89.7898C89.8995 7.34412 89.9543 7.38401 89.9543 7.46381V10.89C89.9543 10.9898 89.9144 11.0396 89.8346 11.0396H85.81L85.8399 28.5148C85.8399 28.6145 85.8 28.6644 85.7202 28.6644Z" fill="#004AAD"/>
<path d="M103.007 28.6644H93.1023C93.0225 28.6644 92.9826 28.6145 92.9826 28.5148L93.0125 7.46381C93.0125 7.38401 93.0524 7.34412 93.1322 7.34412H102.977C103.057 7.34412 103.097 7.39399 103.097 7.49373V10.9199C103.097 10.9997 103.057 11.0396 102.977 11.0396H96.693V15.8274H102.977C103.057 15.8274 103.097 15.8672 103.097 15.947L103.127 19.4181C103.127 19.4979 103.087 19.5378 103.007 19.5378H96.693V24.8941H103.007C103.087 24.8941 103.127 24.944 103.127 25.0437V28.5447C103.127 28.6245 103.087 28.6644 103.007 28.6644Z" fill="#004AAD"/>
<path d="M113.022 28.9636C111.915 28.9636 110.903 28.6844 109.985 28.1258C109.077 27.5672 108.354 26.8191 107.816 25.8816C107.287 24.934 107.023 23.8817 107.023 22.7247L107.052 13.1642C107.052 12.0271 107.312 10.9997 107.83 10.0821C108.349 9.15447 109.062 8.41138 109.97 7.85281C110.888 7.28427 111.905 7 113.022 7C114.159 7 115.172 7.2743 116.059 7.82289C116.957 8.37148 117.67 9.11457 118.199 10.0522C118.737 10.9798 119.007 12.0171 119.007 13.1642V14.5706C119.007 14.6504 118.967 14.6903 118.887 14.6903H115.446C115.366 14.6903 115.326 14.6504 115.326 14.5706V13.1642C115.326 12.4859 115.107 11.9024 114.668 11.4137C114.229 10.9249 113.68 10.6806 113.022 10.6806C112.294 10.6806 111.735 10.9299 111.346 11.4286C110.957 11.9274 110.763 12.5059 110.763 13.1642V22.7247C110.763 23.4727 110.982 24.0862 111.421 24.5649C111.86 25.0337 112.394 25.2681 113.022 25.2681C113.68 25.2681 114.229 25.0088 114.668 24.4901C115.107 23.9615 115.326 23.373 115.326 22.7247V21.3033C115.326 21.2235 115.366 21.1836 115.446 21.1836H118.917C118.997 21.1836 119.037 21.2235 119.037 21.3033V22.7247C119.037 23.8717 118.767 24.919 118.229 25.8666C117.68 26.8042 116.957 27.5573 116.059 28.1258C115.162 28.6844 114.149 28.9636 113.022 28.9636Z" fill="#004AAD"/>
<path d="M125.297 28.6644H121.855C121.786 28.6644 121.756 28.6145 121.766 28.5148L125.267 17.5779L121.826 7.46381C121.806 7.38401 121.836 7.34412 121.915 7.34412H125.356C125.456 7.34412 125.516 7.38401 125.536 7.46381L127.586 14.7501L129.665 7.46381C129.685 7.38401 129.75 7.34412 129.86 7.34412H133.256C133.336 7.34412 133.366 7.38401 133.346 7.46381L129.92 17.5479L133.376 28.5148C133.416 28.6145 133.386 28.6644 133.286 28.6644H129.86C129.77 28.6644 129.705 28.6145 129.665 28.5148L127.586 20.6001L125.476 28.5148C125.466 28.6145 125.406 28.6644 125.297 28.6644Z" fill="#004AAD"/>
<path d="M140.339 28.6644H136.868C136.768 28.6644 136.718 28.6145 136.718 28.5148L136.748 7.46381C136.748 7.38401 136.788 7.34412 136.868 7.34412H140.309C140.389 7.34412 140.429 7.38401 140.429 7.46381L140.459 28.5148C140.459 28.6145 140.419 28.6644 140.339 28.6644Z" fill="#004AAD"/>
<path d="M150.324 28.9636C149.217 28.9636 148.205 28.6844 147.287 28.1258C146.38 27.5672 145.656 26.8191 145.118 25.8816C144.589 24.934 144.325 23.8817 144.325 22.7247L144.355 13.1642C144.355 12.0271 144.614 10.9997 145.133 10.0821C145.651 9.15447 146.365 8.41138 147.272 7.85281C148.19 7.28427 149.207 7 150.324 7C151.462 7 152.474 7.2743 153.362 7.82289C154.259 8.37148 154.973 9.11457 155.501 10.0522C156.04 10.9798 156.309 12.0171 156.309 13.1642V14.5706C156.309 14.6504 156.269 14.6903 156.189 14.6903H152.748C152.668 14.6903 152.629 14.6504 152.629 14.5706V13.1642C152.629 12.4859 152.409 11.9024 151.97 11.4137C151.531 10.9249 150.983 10.6806 150.324 10.6806C149.596 10.6806 149.038 10.9299 148.649 11.4286C148.26 11.9274 148.065 12.5059 148.065 13.1642V22.7247C148.065 23.4727 148.285 24.0862 148.724 24.5649C149.162 25.0337 149.696 25.2681 150.324 25.2681C150.983 25.2681 151.531 25.0088 151.97 24.4901C152.409 23.9615 152.629 23.373 152.629 22.7247V21.3033C152.629 21.2235 152.668 21.1836 152.748 21.1836H156.219C156.299 21.1836 156.339 21.2235 156.339 21.3033V22.7247C156.339 23.8717 156.07 24.919 155.531 25.8666C154.982 26.8042 154.259 27.5573 153.362 28.1258C152.464 28.6844 151.452 28.9636 150.324 28.9636Z" fill="#004AAD"/>
<path d="M163.691 28.6644H160.22C160.14 28.6644 160.1 28.6145 160.1 28.5148L160.16 7.49373C160.16 7.39399 160.2 7.34412 160.28 7.34412H163.721C163.801 7.34412 163.841 7.39399 163.841 7.49373V14.7501L168.643 7.46381C168.723 7.38401 168.798 7.34412 168.868 7.34412H172.384C172.474 7.34412 172.494 7.38401 172.444 7.46381L167.147 15.9171L173.087 28.5447C173.137 28.6245 173.087 28.6644 172.937 28.6644H169.197C169.097 28.6644 169.037 28.6245 169.017 28.5447L164.873 19.5378L163.811 21.2135V28.5148C163.811 28.6145 163.771 28.6644 163.691 28.6644Z" fill="#004AAD"/>
<path d="M190.694 28.9636C189.607 28.9636 188.604 28.6844 187.687 28.1258C186.779 27.5672 186.051 26.8241 185.502 25.8965C184.964 24.9589 184.694 23.9316 184.694 22.8144V21.408C184.694 21.2983 184.744 21.2435 184.844 21.2435H188.285C188.365 21.2435 188.405 21.2983 188.405 21.408V22.8144C188.405 23.4827 188.629 24.0612 189.078 24.55C189.527 25.0287 190.065 25.2681 190.694 25.2681C191.332 25.2681 191.876 25.0238 192.325 24.535C192.774 24.0363 192.998 23.4628 192.998 22.8144C192.998 22.0663 192.509 21.413 191.532 20.8545C191.372 20.7547 191.163 20.635 190.903 20.4954C190.654 20.3458 190.355 20.1762 190.006 19.9867C189.657 19.7972 189.317 19.6126 188.988 19.4331C188.659 19.2436 188.34 19.064 188.031 18.8945C186.914 18.2362 186.081 17.4133 185.532 16.4258C184.993 15.4284 184.724 14.3112 184.724 13.0744C184.724 11.9373 185.003 10.91 185.562 9.99232C186.121 9.08465 186.849 8.36649 187.746 7.83785C188.654 7.29923 189.637 7.02992 190.694 7.02992C191.781 7.02992 192.779 7.29923 193.686 7.83785C194.594 8.38644 195.317 9.11457 195.856 10.0222C196.404 10.9299 196.678 11.9473 196.678 13.0744V15.588C196.678 15.6678 196.639 15.7077 196.559 15.7077H193.118C193.038 15.7077 192.998 15.6678 192.998 15.588L192.968 13.0744C192.968 12.3563 192.744 11.7728 192.295 11.3239C191.846 10.8751 191.312 10.6506 190.694 10.6506C190.065 10.6506 189.527 10.89 189.078 11.3688C188.629 11.8476 188.405 12.4161 188.405 13.0744C188.405 13.7427 188.544 14.3013 188.824 14.7501C189.113 15.199 189.637 15.6279 190.395 16.0368C190.474 16.0767 190.659 16.1765 190.948 16.336C191.237 16.4956 191.557 16.6752 191.906 16.8747C192.265 17.0642 192.589 17.2387 192.878 17.3983C193.168 17.5479 193.342 17.6377 193.402 17.6676C194.419 18.2362 195.222 18.9344 195.811 19.7623C196.409 20.5901 196.708 21.6075 196.708 22.8144C196.708 23.9814 196.439 25.0287 195.9 25.9564C195.352 26.884 194.624 27.6171 193.716 28.1557C192.808 28.6943 191.801 28.9636 190.694 28.9636Z" fill="#004AAD"/>
<path d="M206.035 28.9636C204.948 28.9636 203.946 28.6844 203.028 28.1258C202.121 27.5672 201.387 26.8241 200.829 25.8965C200.28 24.9589 200.006 23.9316 200.006 22.8144L200.036 13.1043C200.036 11.9673 200.31 10.9449 200.859 10.0372C201.397 9.11956 202.126 8.38644 203.043 7.83785C203.961 7.27928 204.958 7 206.035 7C207.153 7 208.155 7.2743 209.043 7.82289C209.94 8.37148 210.659 9.10959 211.197 10.0372C211.746 10.9549 212.02 11.9772 212.02 13.1043L212.05 22.8144C212.05 23.9316 211.781 24.9539 211.242 25.8816C210.694 26.8191 209.965 27.5672 209.058 28.1258C208.15 28.6844 207.143 28.9636 206.035 28.9636ZM206.035 25.2681C206.654 25.2681 207.193 25.0188 207.651 24.52C208.11 24.0114 208.34 23.4428 208.34 22.8144L208.31 13.1043C208.31 12.4261 208.095 11.8525 207.666 11.3838C207.237 10.915 206.694 10.6806 206.035 10.6806C205.407 10.6806 204.868 10.91 204.42 11.3688C203.971 11.8276 203.746 12.4061 203.746 13.1043V22.8144C203.746 23.4827 203.971 24.0612 204.42 24.55C204.868 25.0287 205.407 25.2681 206.035 25.2681Z" fill="#004AAD"/>
<path d="M219.492 28.6644H216.051C215.951 28.6644 215.901 28.6145 215.901 28.5148L215.961 7.46381C215.961 7.38401 216.001 7.34412 216.081 7.34412H225.896C225.995 7.34412 226.045 7.38401 226.045 7.46381V10.9199C226.045 10.9997 226.005 11.0396 225.925 11.0396H219.642V15.7974H225.925C226.005 15.7974 226.045 15.8473 226.045 15.947L226.075 19.4181C226.075 19.4979 226.025 19.5378 225.925 19.5378H219.642V28.5148C219.642 28.6145 219.592 28.6644 219.492 28.6644Z" fill="#004AAD"/>
<path d="M236.868 28.6644H233.412C233.322 28.6644 233.278 28.6145 233.278 28.5148V11.0396H229.298C229.198 11.0396 229.148 10.9898 229.148 10.89L229.178 7.46381C229.178 7.38401 229.218 7.34412 229.298 7.34412H240.938C241.048 7.34412 241.103 7.38401 241.103 7.46381V10.89C241.103 10.9898 241.063 11.0396 240.983 11.0396H236.958L236.988 28.5148C236.988 28.6145 236.948 28.6644 236.868 28.6644Z" fill="#004AAD"/>
<path d="M250.669 28.6644H246.958C246.869 28.6644 246.819 28.6145 246.809 28.5148L243.188 7.46381C243.168 7.38401 243.198 7.34412 243.278 7.34412H246.719C246.799 7.34412 246.849 7.38401 246.869 7.46381L248.829 21.3033L250.849 7.46381C250.868 7.38401 250.928 7.34412 251.028 7.34412H253.796C253.876 7.34412 253.926 7.38401 253.946 7.46381L255.935 21.3033L257.925 7.46381C257.945 7.38401 257.995 7.34412 258.075 7.34412H261.486C261.586 7.34412 261.626 7.38401 261.606 7.46381L257.955 28.5148C257.945 28.5547 257.915 28.5896 257.866 28.6195L257.806 28.6644H254.095C254.035 28.6644 253.985 28.6145 253.946 28.5148L252.375 17.518L250.819 28.5148C250.809 28.6145 250.759 28.6644 250.669 28.6644Z" fill="#004AAD"/>
<path d="M263.901 28.5148L267.701 7.46381C267.721 7.38401 267.771 7.34412 267.851 7.34412H272.294C272.374 7.34412 272.424 7.38401 272.444 7.46381L276.095 28.5148C276.105 28.6145 276.065 28.6644 275.975 28.6644H272.579C272.479 28.6644 272.424 28.6145 272.414 28.5148L272.085 26.2706H267.911L267.582 28.5148C267.572 28.6145 267.522 28.6644 267.432 28.6644H264.021C263.941 28.6644 263.901 28.6145 263.901 28.5148ZM269.901 14.391L268.524 22.994H271.472L270.215 14.391L270.035 13.254L269.901 14.391Z" fill="#004AAD"/>
<path d="M283.133 28.6644H279.662C279.582 28.6644 279.542 28.6145 279.542 28.5148L279.602 7.46381C279.602 7.38401 279.642 7.34412 279.721 7.34412H285.916C287.023 7.34412 288.04 7.61343 288.968 8.15204C289.895 8.69066 290.633 9.41381 291.182 10.3215C291.741 11.2291 292.02 12.2565 292.02 13.4036C292.02 14.1517 291.905 14.8299 291.676 15.4383C291.446 16.0468 291.177 16.5605 290.868 16.9794C290.569 17.3983 290.294 17.7075 290.045 17.907C291.152 19.1339 291.706 20.5752 291.706 22.2309L291.736 28.5148C291.736 28.6145 291.686 28.6644 291.586 28.6644H288.115C288.035 28.6644 287.995 28.6345 287.995 28.5746V22.2309C287.995 21.4928 287.736 20.8545 287.217 20.3158C286.699 19.7772 286.06 19.5079 285.302 19.5079H283.282L283.252 28.5148C283.252 28.6145 283.212 28.6644 283.133 28.6644ZM285.916 11.0097H283.282V15.8274H285.916C286.544 15.8274 287.102 15.593 287.591 15.1242C288.09 14.6554 288.339 14.0818 288.339 13.4036C288.339 12.7552 288.1 12.1967 287.621 11.7279C287.142 11.2491 286.574 11.0097 285.916 11.0097Z" fill="#004AAD"/>
<path d="M305.88 28.6644H295.976C295.896 28.6644 295.856 28.6145 295.856 28.5148L295.886 7.46381C295.886 7.38401 295.926 7.34412 296.006 7.34412H305.85C305.93 7.34412 305.97 7.39399 305.97 7.49373V10.9199C305.97 10.9997 305.93 11.0396 305.85 11.0396H299.567V15.8274H305.85C305.93 15.8274 305.97 15.8672 305.97 15.947L306 19.4181C306 19.4979 305.96 19.5378 305.88 19.5378H299.567V24.8941H305.88C305.96 24.8941 306 24.944 306 25.0437V28.5447C306 28.6245 305.96 28.6644 305.88 28.6644Z" fill="#004AAD"/>
<path d="M84.2499 50.9916C83.8421 50.9916 83.4662 50.8869 83.1221 50.6774C82.7817 50.468 82.5087 50.1893 82.303 49.8414C82.101 49.4898 82 49.1046 82 48.6857V48.1583C82 48.1171 82.0187 48.0965 82.0561 48.0965H83.3465C83.3765 48.0965 83.3914 48.1171 83.3914 48.1583V48.6857C83.3914 48.9363 83.4756 49.1532 83.6439 49.3365C83.8122 49.516 84.0142 49.6058 84.2499 49.6058C84.4892 49.6058 84.6931 49.5142 84.8614 49.3309C85.0297 49.1439 85.1139 48.9288 85.1139 48.6857C85.1139 48.4051 84.9306 48.1601 84.564 47.9507C84.5042 47.9133 84.4257 47.8684 84.3284 47.816C84.2349 47.7599 84.1227 47.6963 83.9918 47.6253C83.8609 47.5542 83.7337 47.485 83.6102 47.4177C83.4868 47.3466 83.3671 47.2793 83.2512 47.2157C82.8322 46.9688 82.5199 46.6602 82.3142 46.2899C82.1122 45.9159 82.0112 45.497 82.0112 45.0332C82.0112 44.6067 82.116 44.2215 82.3254 43.8774C82.5349 43.537 82.8079 43.2677 83.1446 43.0694C83.4849 42.8675 83.8534 42.7665 84.2499 42.7665C84.6576 42.7665 85.0316 42.8675 85.372 43.0694C85.7123 43.2752 85.9835 43.5482 86.1855 43.8886C86.3912 44.229 86.4941 44.6105 86.4941 45.0332V45.9757C86.4941 46.0057 86.4791 46.0206 86.4492 46.0206H85.1588C85.1288 46.0206 85.1139 46.0057 85.1139 45.9757L85.1027 45.0332C85.1027 44.7638 85.0185 44.545 84.8502 44.3767C84.6819 44.2084 84.4818 44.1242 84.2499 44.1242C84.0142 44.1242 83.8122 44.214 83.6439 44.3935C83.4756 44.5731 83.3914 44.7863 83.3914 45.0332C83.3914 45.2838 83.4438 45.4932 83.5485 45.6615C83.657 45.8299 83.8534 45.9907 84.1376 46.1441C84.1676 46.159 84.2368 46.1964 84.3452 46.2563C84.4537 46.3161 84.5734 46.3834 84.7043 46.4582C84.839 46.5293 84.9605 46.5948 85.069 46.6546C85.1775 46.7107 85.2429 46.7444 85.2654 46.7556C85.6469 46.9688 85.948 47.2306 86.1687 47.5411C86.3931 47.8515 86.5053 48.2331 86.5053 48.6857C86.5053 49.1233 86.4043 49.516 86.2023 49.8639C85.9966 50.2117 85.7236 50.4867 85.3832 50.6886C85.0428 50.8906 84.665 50.9916 84.2499 50.9916Z" fill="#CCCCCC"/>
<path d="M95.1737 50.9916C94.766 50.9916 94.3901 50.8869 94.046 50.6774C93.7056 50.468 93.4307 50.1893 93.2212 49.8414C93.0155 49.4898 92.9126 49.1046 92.9126 48.6857L92.9238 45.0444C92.9238 44.618 93.0267 44.2346 93.2324 43.8942C93.4344 43.5501 93.7075 43.2752 94.0516 43.0694C94.3957 42.86 94.7697 42.7552 95.1737 42.7552C95.5926 42.7552 95.9685 42.8581 96.3014 43.0638C96.6381 43.2696 96.9074 43.5463 97.1094 43.8942C97.3151 44.2383 97.4179 44.6217 97.4179 45.0444L97.4292 48.6857C97.4292 49.1046 97.3282 49.488 97.1262 49.8358C96.9205 50.1874 96.6474 50.468 96.307 50.6774C95.9667 50.8869 95.5889 50.9916 95.1737 50.9916ZM95.1737 49.6058C95.4056 49.6058 95.6076 49.5123 95.7796 49.3253C95.9517 49.1345 96.0377 48.9213 96.0377 48.6857L96.0265 45.0444C96.0265 44.79 95.9461 44.575 95.7853 44.3992C95.6244 44.2234 95.4206 44.1355 95.1737 44.1355C94.9381 44.1355 94.7361 44.2215 94.5678 44.3935C94.3994 44.5656 94.3153 44.7825 94.3153 45.0444V48.6857C94.3153 48.9363 94.3994 49.1532 94.5678 49.3365C94.7361 49.516 94.9381 49.6058 95.1737 49.6058Z" fill="#CCCCCC"/>
<path d="M107.803 50.8794H104.089C104.059 50.8794 104.044 50.8607 104.044 50.8233L104.055 42.9404C104.055 42.903 104.074 42.8843 104.111 42.8843H105.391C105.428 42.8843 105.447 42.903 105.447 42.9404L105.435 49.4655H107.803C107.841 49.4655 107.859 49.4842 107.859 49.5216V50.8233C107.859 50.8607 107.841 50.8794 107.803 50.8794Z" fill="#CCCCCC"/>
<path d="M116.472 50.9916C116.068 50.9916 115.694 50.8869 115.349 50.6774C115.005 50.468 114.73 50.1874 114.525 49.8358C114.323 49.4805 114.222 49.0934 114.222 48.6744L114.244 42.9292C114.244 42.8993 114.259 42.8843 114.289 42.8843H115.579C115.609 42.8843 115.624 42.8993 115.624 42.9292V48.6744C115.624 48.9325 115.707 49.1532 115.871 49.3365C116.036 49.516 116.236 49.6058 116.472 49.6058C116.718 49.6058 116.924 49.516 117.089 49.3365C117.253 49.1532 117.336 48.9325 117.336 48.6744V42.9292C117.336 42.8993 117.351 42.8843 117.38 42.8843H118.671C118.701 42.8843 118.716 42.8993 118.716 42.9292L118.738 48.6744C118.738 49.0971 118.637 49.4861 118.435 49.8414C118.23 50.193 117.956 50.4736 117.616 50.683C117.276 50.8888 116.894 50.9916 116.472 50.9916Z" fill="#CCCCCC"/>
<path d="M127.839 50.8794H126.543C126.509 50.8794 126.492 50.8607 126.492 50.8233V44.2701H125C124.962 44.2701 124.944 44.2514 124.944 44.214L124.955 42.9292C124.955 42.8993 124.97 42.8843 125 42.8843H129.365C129.406 42.8843 129.426 42.8993 129.426 42.9292V44.214C129.426 44.2514 129.411 44.2701 129.382 44.2701H127.872L127.884 50.8233C127.884 50.8607 127.869 50.8794 127.839 50.8794Z" fill="#CCCCCC"/>
<path d="M137.091 50.8794H135.789C135.751 50.8794 135.733 50.8607 135.733 50.8233L135.744 42.9292C135.744 42.8993 135.759 42.8843 135.789 42.8843H137.079C137.109 42.8843 137.124 42.8993 137.124 42.9292L137.135 50.8233C137.135 50.8607 137.12 50.8794 137.091 50.8794Z" fill="#CCCCCC"/>
<path d="M146.017 50.9916C145.609 50.9916 145.233 50.8869 144.889 50.6774C144.549 50.468 144.274 50.1893 144.065 49.8414C143.859 49.4898 143.756 49.1046 143.756 48.6857L143.767 45.0444C143.767 44.618 143.87 44.2346 144.076 43.8942C144.278 43.5501 144.551 43.2752 144.895 43.0694C145.239 42.86 145.613 42.7552 146.017 42.7552C146.436 42.7552 146.812 42.8581 147.145 43.0638C147.481 43.2696 147.751 43.5463 147.953 43.8942C148.158 44.2383 148.261 44.6217 148.261 45.0444L148.272 48.6857C148.272 49.1046 148.171 49.488 147.969 49.8358C147.764 50.1874 147.491 50.468 147.15 50.6774C146.81 50.8869 146.432 50.9916 146.017 50.9916ZM146.017 49.6058C146.249 49.6058 146.451 49.5123 146.623 49.3253C146.795 49.1345 146.881 48.9213 146.881 48.6857L146.87 45.0444C146.87 44.79 146.789 44.575 146.629 44.3992C146.468 44.2234 146.264 44.1355 146.017 44.1355C145.781 44.1355 145.579 44.2215 145.411 44.3935C145.243 44.5656 145.159 44.7825 145.159 45.0444V48.6857C145.159 48.9363 145.243 49.1532 145.411 49.3365C145.579 49.516 145.781 49.6058 146.017 49.6058Z" fill="#CCCCCC"/>
<path d="M156.139 50.8794H154.988C154.929 50.8794 154.899 50.8532 154.899 50.8009L154.887 42.9741C154.887 42.9142 154.917 42.8843 154.977 42.8843H156.015L157.956 47.4121L157.9 42.9741C157.9 42.9142 157.934 42.8843 158.001 42.8843H159.14C159.185 42.8843 159.208 42.9142 159.208 42.9741L159.219 50.8121C159.219 50.857 159.2 50.8794 159.163 50.8794H158.153L156.161 46.649L156.245 50.7896C156.245 50.8495 156.21 50.8794 156.139 50.8794Z" fill="#CCCCCC"/>
<path d="M167.915 50.9916C167.507 50.9916 167.132 50.8869 166.787 50.6774C166.447 50.468 166.174 50.1893 165.968 49.8414C165.766 49.4898 165.665 49.1046 165.665 48.6857V48.1583C165.665 48.1171 165.684 48.0965 165.721 48.0965H167.012C167.042 48.0965 167.057 48.1171 167.057 48.1583V48.6857C167.057 48.9363 167.141 49.1532 167.309 49.3365C167.478 49.516 167.68 49.6058 167.915 49.6058C168.155 49.6058 168.358 49.5142 168.527 49.3309C168.695 49.1439 168.779 48.9288 168.779 48.6857C168.779 48.4051 168.596 48.1601 168.229 47.9507C168.17 47.9133 168.091 47.8684 167.994 47.816C167.9 47.7599 167.788 47.6963 167.657 47.6253C167.526 47.5542 167.399 47.485 167.276 47.4177C167.152 47.3466 167.032 47.2793 166.916 47.2157C166.498 46.9688 166.185 46.6602 165.98 46.2899C165.778 45.9159 165.677 45.497 165.677 45.0332C165.677 44.6067 165.781 44.2215 165.991 43.8774C166.2 43.537 166.473 43.2677 166.81 43.0694C167.15 42.8675 167.519 42.7665 167.915 42.7665C168.323 42.7665 168.697 42.8675 169.037 43.0694C169.378 43.2752 169.649 43.5482 169.851 43.8886C170.057 44.229 170.159 44.6105 170.159 45.0332V45.9757C170.159 46.0057 170.144 46.0206 170.115 46.0206H168.824C168.794 46.0206 168.779 46.0057 168.779 45.9757L168.768 45.0332C168.768 44.7638 168.684 44.545 168.516 44.3767C168.347 44.2084 168.147 44.1242 167.915 44.1242C167.68 44.1242 167.478 44.214 167.309 44.3935C167.141 44.5731 167.057 44.7863 167.057 45.0332C167.057 45.2838 167.109 45.4932 167.214 45.6615C167.322 45.8299 167.519 45.9907 167.803 46.1441C167.833 46.159 167.902 46.1964 168.011 46.2563C168.119 46.3161 168.239 46.3834 168.37 46.4582C168.504 46.5293 168.626 46.5948 168.734 46.6546C168.843 46.7107 168.908 46.7444 168.931 46.7556C169.312 46.9688 169.613 47.2306 169.834 47.5411C170.058 47.8515 170.171 48.2331 170.171 48.6857C170.171 49.1233 170.07 49.516 169.868 49.8639C169.662 50.2117 169.389 50.4867 169.049 50.6886C168.708 50.8906 168.33 50.9916 167.915 50.9916Z" fill="#CCCCCC"/>
<path fill-rule="evenodd" clip-rule="evenodd" d="M27.1457 25.6507C28.2756 25.6555 37.4139 25.6603 37.8474 25.6507C38.2825 25.6412 38.2379 25.74 38.2379 25.9424C38.2379 26.1432 38.2331 28.5784 38.2379 28.8573C38.2411 29.1378 38.0849 29.0453 37.8474 29.0517C37.6116 29.0597 34.9772 29.0517 34.7349 29.0517C34.6696 29.0469 34.6042 29.0565 34.5437 29.0804C34.4815 29.1027 34.4273 29.1378 34.3811 29.184C34.3333 29.2302 34.2982 29.2844 34.2759 29.3466C34.252 29.4087 34.244 29.4725 34.2488 29.5378C34.2488 29.8852 34.2488 41.6038 34.2488 41.8827C34.2488 42.16 34.0958 42.1727 33.8584 42.1743C33.6225 42.1759 31.4072 42.1759 31.1347 42.1743C30.8622 42.1711 30.7443 42.2237 30.7459 41.7855C30.7475 41.3456 30.7251 29.7434 30.7459 29.5378C30.765 29.3338 30.596 29.0597 30.357 29.0517C30.1179 29.0453 27.3337 29.0485 27.1457 29.0517C26.9576 29.0565 26.8652 29.0135 26.854 28.7601C26.8429 28.5083 26.854 26.1177 26.854 25.9424C26.8492 25.9026 26.854 25.8627 26.8684 25.8261C26.8811 25.7878 26.9018 25.7543 26.9305 25.7272C26.9592 25.6986 26.9911 25.6778 27.0293 25.6635C27.0676 25.6507 27.1058 25.646 27.1457 25.6507Z" fill="#0277BD"/>
<path fill-rule="evenodd" clip-rule="evenodd" d="M6.66967 43.2899C8.52156 54.5479 41.7217 55.0818 58.4381 54.5973C46.8391 56.3695 -2.45432 62.6885 6.66967 43.2899Z" fill="#29B6F6"/>
<path fill-rule="evenodd" clip-rule="evenodd" d="M30.5307 52.2689C24.916 49.7238 7.85219 46.6112 10.9838 32.389C2.00009 45.9833 15.851 50.6338 30.5307 52.2689Z" fill="#0277BD"/>
<path fill-rule="evenodd" clip-rule="evenodd" d="M12.8596 38.8658C12.2604 37.5621 11.7393 36.5581 13.2103 34.5644C14.6828 32.5706 15.6582 31.4088 15.7012 31.3546C15.7459 31.3004 14.2031 33.785 13.3999 35.8138C13.0764 36.8848 12.8118 38.6825 12.8596 38.8658Z" fill="#29B6F6"/>
<path fill-rule="evenodd" clip-rule="evenodd" d="M52.586 50.7501C61.5586 43.6947 45.996 14.3912 37.5 0C44.6541 9.29292 73.9959 49.3636 52.586 50.7501Z" fill="#D4E157"/>
<path fill-rule="evenodd" clip-rule="evenodd" d="M48.9348 25.5392C49.4145 31.6813 54.924 48.1109 40.9471 52.2386C57.2014 53.5343 54.5893 39.1702 48.9348 25.5392Z" fill="#4CAF50"/>
<path fill-rule="evenodd" clip-rule="evenodd" d="M45.7187 47.4702C44.8645 48.6241 44.2366 49.5659 41.7775 49.2392C39.32 48.9141 37.8299 48.6225 37.7613 48.6113C37.6928 48.5986 40.6157 48.7484 42.7815 48.4727C43.8764 48.2384 45.5801 47.6009 45.7187 47.4702Z" fill="#D4E157"/>
<path fill-rule="evenodd" clip-rule="evenodd" d="M36.4864 6.89123C25.8866 2.64559 8.23948 30.7459 0 45.2837C4.48789 34.4528 24.5957 -10.9503 36.4864 6.89123Z" fill="#EC407A"/>
<path fill-rule="evenodd" clip-rule="evenodd" d="M16.4439 22.637C21.531 19.1564 33.0296 6.18359 43.588 16.2224C36.5964 1.50446 25.4436 10.9376 16.4439 22.637Z" fill="#F8BBD0"/>
<path fill-rule="evenodd" clip-rule="evenodd" d="M37.0697 14.4725C38.4976 14.635 39.626 14.7083 40.5726 17.0001C41.5177 19.2903 42.0086 20.7262 42.0309 20.7899C42.0548 20.8553 40.7272 18.2512 39.4044 16.514C38.6554 15.6837 37.2513 14.5267 37.0697 14.4725Z" fill="#EC407A"/>
</svg>
